<?xml version="1.0" standalone="no"?><!DOCTYPE svg PUBLIC "-//W3C//DTD SVG 1.1//EN" "http://www.w3.org/Graphics/SVG/1.1/DTD/svg11.dtd"><svg t="1646467296190" class="icon" viewBox="0 0 1024 1024" version="1.1" xmlns="http://www.w3.org/2000/svg" p-id="7085" xmlns:xlink="http://www.w3.org/1999/xlink" width="200" height="200"><defs><style type="text/css"></style></defs><path d="M624.64 256C731.648 256 819.2 335.7184 819.2 435.0464c0 34.4064-10.6496 67.4304-30.208 95.8464a26.2656 26.2656 0 0 1-1.3824 2.304c-60.5184 92.9792-145.5104 171.4176-249.4976 229.4784-8.192 3.4816-16.9984 5.3248-26.112 5.3248-9.0624 0-17.92-1.8432-28.5696-6.5536-101.5296-56.832-186.5216-135.2704-247.04-228.2496a26.2656 26.2656 0 0 1-1.3312-2.3552A168.2944 168.2944 0 0 1 204.8 435.0976C204.8 335.6672 292.352 256 399.36 256c40.96 0 80.0256 11.776 112.64 33.2288A205.1584 205.1584 0 0 1 624.64 256z m120.2176 249.0368A118.784 118.784 0 0 0 768 435.0464c0-70.656-63.744-128.6656-143.36-128.6656a152.064 152.064 0 0 0-96.256 33.5872 25.9072 25.9072 0 0 1-32.768 0 152.064 152.064 0 0 0-96.256-33.5872C319.744 306.3808 256 364.4416 256 435.0464c0 25.088 8.0896 49.152 23.1424 70.0416 1.024 1.3312 1.792 2.7648 2.5088 4.1984 55.808 84.5824 133.8368 156.16 224.6144 207.1552a14.7968 14.7968 0 0 0 5.7344 1.1776c2.048 0 3.8912-0.3584 3.2256 0.0512 93.184-52.224 171.3152-123.8016 227.1232-208.384a25.9584 25.9584 0 0 1 2.56-4.2496z" p-id="7086"></path></svg>