<?xml version="1.0" standalone="no"?><!DOCTYPE svg PUBLIC "-//W3C//DTD SVG 1.1//EN" "http://www.w3.org/Graphics/SVG/1.1/DTD/svg11.dtd"><svg t="1646735535780" class="icon" viewBox="0 0 1024 1024" version="1.1" xmlns="http://www.w3.org/2000/svg" p-id="2036" xmlns:xlink="http://www.w3.org/1999/xlink" width="200" height="200"><defs><style type="text/css"></style></defs><path d="M596 374 596 373.94176 637.81632 373.94176 637.81632 374.01344 662.64 374.01344 636.34688 400.32C628.7488 407.92256 624.0448 418.42368 624.0448 430.02688 624.0448 453.2288 642.84288 472.02688 666.02688 472.02688 677.62112 472.02688 688.11776 467.32288 695.7248 459.72032L793.69344 361.70688C801.296 354.12224 806 343.62112 806 332.01344 806 320.41024 801.296 309.90912 793.70688 302.30656L695.73824 204.29312C688.1312 196.704 677.63456 192 666.0448 192 642.84288 192 624.05824 210.816 624.05824 234.01344 624.05824 245.60768 628.75776 256.12224 636.3648 263.72032L662.58176 289.95968 582 289.95968 582 290 316 290C176.8288 290 64 402.8288 64 542L64 640C64 663.19744 82.80256 682 106 682 129.19744 682 148 663.19744 148 640L148 542C148 449.22368 223.22368 374 316 374L596 374ZM918 402C894.80256 402 876 420.80256 876 444L876 542C876 634.77632 800.77632 710 708 710L428 710 428 710.0448 386.18368 710.0448 386.18368 709.97312 361.36 709.97312 387.65312 683.66656C395.2512 676.064 399.94176 665.56288 399.94176 653.9552 399.94176 630.76224 381.14368 611.9552 357.95968 611.9552 346.36544 611.9552 335.8688 616.66368 328.26176 624.26176L230.29312 722.2752C222.704 729.88224 218 740.37888 218 751.98656 218 763.59424 222.704 774.07744 230.29312 781.69344L328.26176 879.70688C335.87776 887.296 346.36544 892 357.97312 892 381.17056 892 399.95968 873.19744 399.95968 850 399.95968 838.39232 395.2512 827.90464 387.66656 820.29312L361.44512 794.05824 442 794.05824 442 794 708 794C847.1712 794 960 681.1712 960 542L960 444C960 420.80256 941.19744 402 918 402L918 402Z" p-id="2037"></path></svg>